HIERARCHY
ROOT joint_Root
{
	OFFSET 0.0 0.0 0.0
	CHANNELS 6 Xposition Yposition Zposition Zrotation Xrotation Yrotation 
	JOINT Hips
	{
		OFFSET 4.5925 91.4895 -427.239
		CHANNELS 6 Xposition Yposition Zposition Zrotation Xrotation Yrotation 
		JOINT Spine
		{
			OFFSET 15.7357 0.0 0.0
			CHANNELS 6 Xposition Yposition Zposition Zrotation Xrotation Yrotation 
			JOINT Chest
			{
				OFFSET 8.98455 -0.406207 0.0
				CHANNELS 6 Xposition Yposition Zposition Zrotation Xrotation Yrotation 
				JOINT Neck
				{
					OFFSET 16.3773 0.0 0.0
					CHANNELS 6 Xposition Yposition Zposition Zrotation Xrotation Yrotation 
					JOINT Head
					{
						OFFSET 6.45672 0.0 0.0
						CHANNELS 6 Xposition Yposition Zposition Zrotation Xrotation Yrotation 
						End Site
						{
							OFFSET 0.0 0.0 0.0
						}
					}
				}
				JOINT Shoulder_L
				{
					OFFSET 12.9942 -0.242716 4.98039
					CHANNELS 6 Xposition Yposition Zposition Zrotation Xrotation Yrotation 
					JOINT UpperArm_L
					{
						OFFSET 5.34809 0.0 0.0
						CHANNELS 6 Xposition Yposition Zposition Zrotation Xrotation Yrotation 
						JOINT LowerArm_L
						{
							OFFSET 24.3286 1.87007e-05 0.0
							CHANNELS 6 Xposition Yposition Zposition Zrotation Xrotation Yrotation 
							JOINT Hand_L
							{
								OFFSET 22.2916 0.0 0.0
								CHANNELS 6 Xposition Yposition Zposition Zrotation Xrotation Yrotation 
								End Site
								{
									OFFSET 0.0 0.0 0.0
								}
							}
						}
					}
				}
				JOINT Shoulder_R
				{
					OFFSET 12.9945 -0.242716 -4.98039
					CHANNELS 6 Xposition Yposition Zposition Zrotation Xrotation Yrotation 
					JOINT UpperArm_R
					{
						OFFSET -5.34813 0.0 0.0
						CHANNELS 6 Xposition Yposition Zposition Zrotation Xrotation Yrotation 
						JOINT LowerArm_R
						{
							OFFSET -24.3289 0.000322201 0.0
							CHANNELS 6 Xposition Yposition Zposition Zrotation Xrotation Yrotation 
							JOINT Hand_R
							{
								OFFSET -22.2915 -0.000108084 0.0
								CHANNELS 6 Xposition Yposition Zposition Zrotation Xrotation Yrotation 
								End Site
								{
									OFFSET 0.0 0.0 0.0
								}
							}
						}
					}
				}
			}
		}
		JOINT UpperLeg_L
		{
			OFFSET -2.19248 -6.46944 0.0
			CHANNELS 6 Xposition Yposition Zposition Zrotation Xrotation Yrotation 
			JOINT LowerLeg_L
			{
				OFFSET 39.0811 0.0 -1.23785e-05
				CHANNELS 6 Xposition Yposition Zposition Zrotation Xrotation Yrotation 
				JOINT Foot_L
				{
					OFFSET 40.9854 0.0 -1.26872e-05
					CHANNELS 6 Xposition Yposition Zposition Zrotation Xrotation Yrotation 
					JOINT Toes_L
					{
						OFFSET 11.7543 0.0 0.0
						CHANNELS 6 Xposition Yposition Zposition Zrotation Xrotation Yrotation 
						End Site
						{
							OFFSET 0.0 0.0 0.0
						}
					}
				}
			}
		}
		JOINT UpperLeg_R
		{
			OFFSET -2.19251 6.46944 0.0
			CHANNELS 6 Xposition Yposition Zposition Zrotation Xrotation Yrotation 
			JOINT LowerLeg_R
			{
				OFFSET -39.0811 -0.00228153 -0.0401928
				CHANNELS 6 Xposition Yposition Zposition Zrotation Xrotation Yrotation 
				JOINT Foot_R
				{
					OFFSET -40.9854 0.0 0.0
					CHANNELS 6 Xposition Yposition Zposition Zrotation Xrotation Yrotation 
					JOINT Toes_R
					{
						OFFSET -11.7543 0.0 0.0
						CHANNELS 6 Xposition Yposition Zposition Zrotation Xrotation Yrotation 
						End Site
						{
							OFFSET 0.0 0.0 0.0
						}
					}
				}
			}
		}
	}
}
MOTION
Frames:	5
Frame Time:	0.0333333
0.000000 0.000000 0.000000 0.000000 0.000000 -0.000000 -4.001820 91.329300 1.448100 88.705700 6.328130 4.078790 15.735700 0.000005 -0.000001 87.244500 85.570900 -91.610900 8.984550 -0.406207 -0.000000 1.090300 -0.171816 -8.723840 16.377300 -0.000001 -0.000001 6.439460 -4.974230 6.222470 6.456720 -0.000001 -0.000000 -3.450750 -2.043380 -1.771220 12.994200 -0.242716 4.980390 -92.018500 5.072560 -68.267200 5.348090 -0.000007 -0.000001 -58.699500 19.997100 -8.913220 24.328600 0.000019 0.000005 7.516940 18.411600 -22.674200 22.291600 -0.000001 0.000005 12.246800 5.176120 3.310960 12.994500 -0.242716 -4.980390 93.902300 -9.458030 -67.456000 -5.348130 -0.000001 -0.000004 -30.774700 -68.009600 -64.160400 -24.328900 0.000322 -0.000009 -10.413700 -9.806570 -47.173200 -22.291500 -0.000108 -0.000004 18.364200 5.533610 -7.954500 -2.192480 -6.469440 -0.000000 -172.293000 -8.887350 -5.304190 39.081100 -0.000007 -0.000012 -0.168338 0.326564 27.270500 40.985400 -0.000006 -0.000013 -1.076440 12.503900 -68.041700 11.754300 -0.000000 0.000003 -0.000157 -0.001506 -16.634700 -2.192510 6.469440 -0.000001 178.838000 25.844200 179.409000 -39.081100 -0.002282 -0.040193 0.014101 -0.022897 25.231600 -40.985400 0.000008 0.000006 8.561380 11.271200 -71.846000 -11.754300 -0.000006 -0.000006 -0.003562 -0.046807 -18.476900
0.000000 0.000000 0.000000 0.000000 0.000000 -0.000000 -3.786990 91.322200 1.407100 88.647100 5.539940 4.294970 15.735700 0.000005 -0.000001 87.318600 85.494200 -91.554000 8.984550 -0.406207 -0.000000 1.243210 -0.180774 -8.461450 16.377300 -0.000001 -0.000001 6.241690 -4.765980 6.107610 6.456720 -0.000001 -0.000000 -3.024650 -1.785610 -1.832800 12.994200 -0.242716 4.980390 -92.071700 5.216690 -68.305000 5.348090 -0.000007 -0.000001 -58.880500 21.112000 -9.637100 24.328600 0.000019 0.000005 7.327920 18.584500 -21.974200 22.291600 -0.000001 0.000005 12.307400 5.165980 3.558260 12.994500 -0.242716 -4.980390 93.532600 -8.873170 -68.187300 -5.348130 -0.000001 -0.000004 -26.255300 -65.147700 -56.891900 -24.328900 0.000322 -0.000009 -11.973800 -9.600290 -51.816300 -22.291500 -0.000108 -0.000004 19.001200 5.550910 -8.749170 -2.192480 -6.469440 -0.000000 -172.335000 -9.247250 -5.015890 39.081100 -0.000007 -0.000012 -0.170931 0.329443 27.422600 40.985400 -0.000006 -0.000013 -1.000200 12.053100 -68.208500 11.754300 -0.000000 0.000003 -0.000155 -0.001493 -16.634200 -2.192510 6.469440 -0.000001 178.623000 25.539800 179.579000 -39.081100 -0.002282 -0.040193 0.012977 -0.020474 25.272400 -40.985400 0.000008 0.000006 8.525690 11.781700 -71.898300 -11.754300 -0.000006 -0.000006 -0.003438 -0.045458 -18.422000
0.000000 0.000000 0.000000 0.000000 0.000000 -0.000000 -3.538930 91.309600 1.363880 88.607400 4.516310 4.569600 15.735700 0.000005 -0.000001 87.369100 85.377000 -91.468700 8.984550 -0.406207 -0.000000 1.476420 -0.199609 -8.189320 16.377300 -0.000001 -0.000001 5.967450 -4.399620 5.838310 6.456720 -0.000001 -0.000000 -2.772320 -1.486790 -1.650140 12.994200 -0.242716 4.980390 -92.106900 5.290310 -68.247600 5.348090 -0.000007 -0.000001 -59.345600 22.025400 -10.410100 24.328600 0.000019 0.000005 7.060560 18.858300 -20.966200 22.291600 -0.000001 0.000005 12.220900 5.162130 3.651440 12.994500 -0.242716 -4.980390 93.113300 -8.291860 -69.335800 -5.348130 -0.000001 -0.000004 -23.225900 -61.549700 -50.209600 -24.328900 0.000322 -0.000009 -13.115600 -8.909250 -56.385600 -22.291500 -0.000108 -0.000004 18.848800 5.550730 -8.740730 -2.192480 -6.469440 -0.000000 -172.416000 -9.603350 -4.625240 39.081100 -0.000007 -0.000012 -0.169830 0.325053 27.585900 40.985400 -0.000006 -0.000013 -0.938464 11.434100 -68.415900 11.754300 -0.000000 0.000003 -0.000153 -0.001477 -16.633700 -2.192510 6.469440 -0.000001 178.355000 24.905900 179.713000 -39.081100 -0.002282 -0.040193 0.001016 0.004823 25.443700 -40.985400 0.000008 0.000006 8.260770 12.278300 -71.846900 -11.754300 -0.000006 -0.000006 -0.003304 -0.043996 -18.362500
0.000000 0.000000 0.000000 0.000000 0.000000 -0.000000 -3.273290 91.301000 1.315450 88.593900 3.370430 4.863430 15.735700 0.000005 -0.000001 87.474300 85.235200 -91.441800 8.984550 -0.406207 -0.000000 1.759290 -0.212137 -7.924370 16.377300 -0.000001 -0.000001 5.609900 -3.954300 5.425720 6.456720 -0.000001 -0.000000 -2.691130 -1.272280 -1.307110 12.994200 -0.242716 4.980390 -92.153500 5.354580 -68.053300 5.348090 -0.000007 -0.000001 -59.760000 23.293000 -11.314900 24.328600 0.000019 0.000005 6.791350 19.172100 -19.932000 22.291600 -0.000001 0.000005 12.185100 5.152880 3.874240 12.994500 -0.242716 -4.980390 92.552200 -7.281200 -70.623600 -5.348130 -0.000001 -0.000004 -21.403900 -57.155200 -44.602200 -24.328900 0.000322 -0.000009 -13.275300 -7.736650 -60.289300 -22.291500 -0.000108 -0.000004 18.489600 5.541720 -8.321090 -2.192480 -6.469440 -0.000000 -172.508000 -10.182500 -4.167190 39.081100 -0.000007 -0.000012 -0.169976 0.323672 27.706400 40.985400 -0.000006 -0.000013 -0.860492 10.835600 -68.605700 11.754300 -0.000000 0.000003 -0.000163 -0.001561 -16.636800 -2.192510 6.469440 -0.000001 178.092000 24.127400 179.810000 -39.081100 -0.002282 -0.040193 -0.004905 0.017109 25.649100 -40.985400 0.000008 0.000006 8.068830 12.720300 -71.786200 -11.754300 -0.000006 -0.000006 -0.003401 -0.045061 -18.405800
0.000000 0.000000 0.000000 0.000000 0.000000 -0.000000 -3.009000 91.293200 1.219100 88.526900 2.320070 5.078990 15.735700 0.000005 -0.000001 87.258000 85.096300 -91.042300 8.984550 -0.406207 -0.000000 2.032250 -0.279869 -7.556240 16.377300 -0.000001 -0.000001 5.098770 -3.570000 4.799110 6.456720 -0.000001 -0.000000 -2.635270 -1.248510 -0.991176 12.994200 -0.242716 4.980390 -92.231300 5.515110 -67.931600 5.348090 -0.000007 -0.000001 -60.132600 24.609800 -12.025000 24.328600 0.000019 0.000005 6.555590 19.190300 -19.269900 22.291600 -0.000001 0.000005 12.113100 5.152370 3.886630 12.994500 -0.242716 -4.980390 91.906800 -5.834040 -71.864600 -5.348130 -0.000001 -0.000004 -20.735100 -52.060800 -40.127400 -24.328900 0.000322 -0.000009 -12.934900 -6.543330 -63.608500 -22.291500 -0.000108 -0.000004 18.070300 5.525250 -7.587580 -2.192480 -6.469440 -0.000000 -172.601000 -10.486700 -3.893280 39.081100 -0.000007 -0.000012 -0.171855 0.324846 27.880600 40.985400 -0.000006 -0.000013 -0.821422 10.092400 -68.774900 11.754300 -0.000000 0.000003 -0.000182 -0.001708 -16.642100 -2.192510 6.469440 -0.000001 177.888000 23.593100 179.807000 -39.081100 -0.002282 -0.040193 -0.013171 0.034049 25.830000 -40.985400 0.000008 0.000006 7.887070 13.326900 -71.694100 -11.754300 -0.000006 -0.000006 -0.003221 -0.043082 -18.325300
